<svg width="49" height="50" xmlns="http://www.w3.org/2000/svg" xmlns:xlink="http://www.w3.org/1999/xlink" xml:space="preserve" overflow="hidden"><g transform="translate(-373 -188)"><path d="M28.6344 5.61458C28.6344 7.86975 26.8062 9.69792 24.551 9.69792 22.2959 9.69792 20.4677 7.86975 20.4677 5.61458 20.4677 3.35942 22.2959 1.53125 24.551 1.53125 26.8062 1.53125 28.6344 3.35942 28.6344 5.61458Z" transform="matrix(1 0 0 1.02041 373 188)"/><path d="M35.6781 26.4396 32.0031 13.7813C31.901 13.2708 31.5948 12.8625 31.1865 12.6583 29.9615 11.8417 28.5323 11.3313 26.899 10.9229 26.0823 10.8208 25.3677 10.7188 24.551 10.7188 23.7344 10.7188 23.0198 10.8208 22.2031 10.9229 20.5698 11.2292 19.1406 11.8417 17.9156 12.6583 17.5073 12.9646 17.201 13.2708 17.099 13.7813L13.3219 26.4396C13.0156 27.5625 13.6281 28.6854 14.751 28.9917 14.9552 29.0938 15.1594 29.0938 15.3635 29.0938 16.2823 29.0938 17.099 28.4813 17.3031 27.6646L20.4677 16.9458 20.4677 20.5188 16.6906 33.1771 19.4469 33.1771 19.4469 47.4688 23.5302 47.4688 23.5302 33.1771 25.5719 33.1771 25.5719 47.4688 29.6552 47.4688 29.6552 33.1771 32.4115 33.1771 28.6344 20.5188 28.6344 16.9458 31.799 27.6646C32.1052 28.5833 32.9219 29.0938 33.7385 29.0938 33.9427 29.0938 34.1469 29.0938 34.351 28.9917 35.3719 28.6854 35.9844 27.5625 35.6781 26.4396Z" transform="matrix(1 0 0 1.02041 373 188)"/></g></svg>